<svg width="108" height="111" viewBox="0 0 108 111" fill="none" xmlns="http://www.w3.org/2000/svg">
<g id="Group 11">
<path id="Vector" d="M52.4597 0.660385C60.8497 0.620385 67.2497 5.84038 73.1297 11.5804C83.0163 23.487 90.8164 36.897 96.5297 51.8104C96.663 53.0037 95.8697 53.5004 94.1497 53.3004C88.2097 38.6704 81.0497 23.1304 69.8697 11.6904C62.7197 3.45038 52.4597 0.0303869 42.9397 7.10039C33.9797 13.7504 29.3997 21.1004 23.0697 31.9704L20.3597 37.5104C19.593 37.8104 18.9997 38.4204 18.5797 39.3404C18.433 39.647 18.213 39.8837 17.9197 40.0504C17.213 40.4504 16.633 40.2604 16.1797 39.4804C22.7997 25.6504 35.8197 2.96038 52.4597 0.660385Z" fill="#D9F8C3"/>
<path id="Vector_2" d="M69.8703 11.6897C68.537 12.2297 67.7603 13.0464 67.5403 14.1397C67.5119 14.2906 67.4516 14.4331 67.3635 14.5574C67.2755 14.6818 67.1618 14.7849 67.0303 14.8597C66.0003 15.4697 65.9103 16.3097 66.5003 17.3597C67.7203 19.5397 68.9803 22.0564 70.2803 24.9097C68.1603 27.8031 64.5636 29.5764 59.4903 30.2297C59.117 30.2764 58.8637 30.4697 58.7303 30.8097C58.6236 31.0764 58.437 31.2664 58.1703 31.3797C50.4403 34.6097 44.9703 37.6997 35.3503 40.0597C33.3803 40.5397 32.9003 42.5797 32.4403 42.6897C32.087 42.7764 31.9936 42.6597 32.1603 42.3397L32.7203 41.2297C32.7342 41.201 32.7398 41.1689 32.7363 41.1371C32.7328 41.1053 32.7204 41.0752 32.7006 41.0502C32.6807 41.0251 32.6543 41.0061 32.6241 40.9955C32.594 40.9848 32.5615 40.9828 32.5303 40.9897C32.2036 41.0697 32.017 41.2864 31.9703 41.6397C31.9303 41.9864 31.7603 42.2464 31.4603 42.4197L28.8903 43.9097L49.0503 13.8497L51.0703 11.6397C51.1683 11.5224 51.2966 11.4357 51.4403 11.3897L55.6103 10.0397C55.9236 9.93307 56.227 9.95974 56.5203 10.1197L65.3303 14.9497C65.535 15.059 65.7684 15.1027 65.9988 15.0747C66.2291 15.0467 66.4453 14.9485 66.6179 14.7934C66.7905 14.6383 66.9111 14.4338 66.9635 14.2077C67.0158 13.9816 66.9972 13.7449 66.9103 13.5297C65.2103 9.39974 59.5903 5.46973 54.9903 8.14973C54.7036 8.3164 54.4003 8.35307 54.0803 8.25974C52.2736 7.73307 50.447 7.66308 48.6003 8.04974C37.9703 13.4397 30.4303 24.9797 25.6203 35.4897C25.687 32.9964 24.837 31.8231 23.0703 31.9697C29.4003 21.0997 33.9803 13.7497 42.9403 7.09975C52.4603 0.029747 62.7203 3.44974 69.8703 11.6897Z" fill="#9FEC80"/>
<path id="Vector_3" d="M49.0496 13.8497C49.1963 12.9764 49.6029 12.3264 50.2696 11.8997C50.5546 11.7162 50.7841 11.4582 50.9331 11.1537C51.0822 10.8493 51.1452 10.5098 51.1153 10.1721C51.0855 9.83446 50.9639 9.51135 50.7637 9.23775C50.5635 8.96414 50.2924 8.75043 49.9796 8.61974L48.5996 8.04974C50.4463 7.66308 52.2729 7.73307 54.0796 8.25974C54.3996 8.35307 54.7029 8.3164 54.9896 8.14973C59.5896 5.46973 65.2096 9.39974 66.9096 13.5297C66.9965 13.7449 67.0151 13.9816 66.9628 14.2077C66.9104 14.4338 66.7898 14.6383 66.6172 14.7934C66.4446 14.9485 66.2284 15.0467 65.9981 15.0747C65.7677 15.1027 65.5343 15.059 65.3296 14.9497L56.5196 10.1197C56.2263 9.95974 55.9229 9.93307 55.6096 10.0397L51.4396 11.3897C51.2959 11.4357 51.1676 11.5224 51.0696 11.6397L49.0496 13.8497Z" fill="#FCFDDD"/>
<path id="Vector_4" d="M48.6003 8.0498L49.9803 8.6198C50.2931 8.75049 50.5642 8.9642 50.7644 9.23781C50.9646 9.51142 51.0862 9.83452 51.116 10.1722C51.1459 10.5099 51.0829 10.8493 50.9338 11.1538C50.7848 11.4583 50.5553 11.7162 50.2703 11.8998C49.6036 12.3265 49.197 12.9765 49.0503 13.8498L28.8903 43.9098C26.9036 48.8765 24.047 52.5031 20.3203 54.7898C20.727 47.8831 22.4936 41.4498 25.6203 35.4898C30.4303 24.9798 37.9703 13.4398 48.6003 8.0498Z" fill="#FFFEFC"/>
<path id="Vector_5" d="M69.8703 11.6904C81.0503 23.1304 88.2103 38.6704 94.1503 53.3004L97.1903 62.6104C95.357 60.4704 94.2003 57.9304 93.7203 54.9904C93.6603 54.6371 93.5203 54.3204 93.3003 54.0404L92.0203 52.3704C91.9695 52.3044 91.9023 52.2527 91.8254 52.2205C91.7485 52.1882 91.6646 52.1766 91.5818 52.1867C91.4991 52.1968 91.4204 52.2283 91.3535 52.278C91.2866 52.3278 91.2338 52.3941 91.2003 52.4704L90.6603 53.7504C87.2803 44.9638 82.587 35.8604 76.5803 26.4404C75.907 25.3871 75.167 24.6504 74.3603 24.2304C74.2819 24.1873 74.1923 24.1702 74.1039 24.1815C74.0155 24.1927 73.9326 24.2318 73.8668 24.2933C73.8009 24.3547 73.7553 24.4356 73.7362 24.5246C73.7172 24.6137 73.7256 24.7066 73.7603 24.7904L83.0503 46.1604L75.5903 54.1104C75.3703 54.3438 75.1103 54.5038 74.8103 54.5904C71.5003 55.5904 72.0903 57.5704 69.9403 59.3204C67.2603 61.5104 62.4403 67.0404 59.1803 67.7404C55.3003 68.5704 52.5603 70.0704 48.4403 70.4504C45.027 70.7638 41.437 71.7104 37.6703 73.2904C36.2803 73.8704 35.8103 75.1004 33.9403 75.1004C33.8024 75.1004 33.6657 75.1307 33.5396 75.1894C33.4136 75.2481 33.3012 75.3338 33.2103 75.4404C32.5436 76.2404 31.7203 76.5271 30.7403 76.3004C30.5203 76.2537 30.1836 76.2471 29.7303 76.2804C29.1303 76.3204 28.737 76.6171 28.5503 77.1704C28.437 77.5038 28.2236 77.7504 27.9103 77.9104C25.377 79.2238 23.0003 81.0604 20.7803 83.4204C19.0603 81.9404 17.7403 79.6404 16.8203 76.5204L19.0603 64.1304L30.0903 54.2004C30.3303 53.9871 30.607 53.8371 30.9203 53.7504C34.327 52.8438 36.4403 52.0938 37.2603 51.5004C39.6603 49.7804 42.6503 49.1904 44.9403 48.1004C50.7103 45.3704 56.4603 44.7104 62.4603 41.5004C64.627 40.3471 67.917 39.0204 72.3303 37.5204C72.6703 37.4071 72.917 37.1904 73.0703 36.8704C73.497 35.9838 73.547 34.8604 73.2203 33.5004C72.247 29.4938 71.267 26.6304 70.2803 24.9104C68.9803 22.0571 67.7203 19.5404 66.5003 17.3604C65.9103 16.3104 66.0003 15.4704 67.0303 14.8604C67.1618 14.7856 67.2755 14.6824 67.3635 14.5581C67.4516 14.4338 67.5119 14.2912 67.5403 14.1404C67.7603 13.0471 68.537 12.2304 69.8703 11.6904Z" fill="#67C65F"/>
<path id="Vector_6" d="M90.6606 53.7501C92.994 59.8901 95.274 67.0567 97.5006 75.2501C98.394 78.5434 98.564 81.28 98.0106 83.46C95.604 78.9134 93.524 73.9234 91.7706 68.4901L88.1006 59.1601L83.0506 46.1601L73.7606 24.7901C73.7259 24.7062 73.7175 24.6133 73.7365 24.5243C73.7556 24.4352 73.8012 24.3544 73.8671 24.2929C73.933 24.2314 74.0158 24.1924 74.1042 24.1811C74.1926 24.1698 74.2822 24.187 74.3606 24.2301C75.1673 24.6501 75.9073 25.3867 76.5806 26.4401C82.5873 35.8601 87.2806 44.9634 90.6606 53.7501Z" fill="#9FEC80"/>
<path id="Vector_7" d="M70.2806 24.9102C71.2673 26.6302 72.2473 29.4935 73.2206 33.5002C73.5473 34.8602 73.4973 35.9835 73.0706 36.8701C72.9173 37.1901 72.6706 37.4068 72.3306 37.5202C67.9173 39.0202 64.6273 40.3468 62.4606 41.5002C56.4606 44.7102 50.7106 45.3702 44.9406 48.1002C42.6506 49.1902 39.6606 49.7802 37.2606 51.5002C36.4406 52.0935 34.3273 52.8435 30.9206 53.7502C30.6073 53.8368 30.3306 53.9868 30.0906 54.2001L19.0606 64.1302C18.8406 62.3702 18.534 61.5335 18.1406 61.6201C18.5606 58.1535 19.2873 55.8768 20.3206 54.7901C24.0473 52.5035 26.904 48.8768 28.8906 43.9102L31.4606 42.4202C31.7606 42.2468 31.9306 41.9868 31.9706 41.6402C32.0173 41.2868 32.204 41.0702 32.5306 40.9902C32.5618 40.9832 32.5943 40.9852 32.6245 40.9959C32.6546 41.0065 32.6811 41.0255 32.7009 41.0506C32.7207 41.0756 32.7331 41.1057 32.7366 41.1375C32.7401 41.1693 32.7346 41.2014 32.7206 41.2301L32.1606 42.3401C31.994 42.6601 32.0873 42.7768 32.4406 42.6902C32.9006 42.5802 33.3806 40.5401 35.3506 40.0602C44.9706 37.7002 50.4406 34.6102 58.1706 31.3802C58.4373 31.2668 58.624 31.0768 58.7306 30.8102C58.864 30.4701 59.1173 30.2768 59.4906 30.2301C64.564 29.5768 68.1606 27.8035 70.2806 24.9102Z" fill="#82DB6E"/>
<path id="Vector_8" d="M23.0702 31.9702C24.8369 31.8236 25.6869 32.9969 25.6202 35.4902C22.4936 41.4502 20.7269 47.8836 20.3202 54.7902C19.2869 55.8769 18.5602 58.1536 18.1402 61.6202C15.1602 65.9869 13.3536 70.9002 12.7202 76.3602C11.6536 75.7602 11.1802 76.7602 11.3002 79.3602C11.3137 79.5836 11.2488 79.8048 11.1165 79.9854C10.9843 80.166 10.7931 80.2946 10.576 80.3492C10.3589 80.4038 10.1296 80.3808 9.9277 80.2842C9.72579 80.1876 9.56398 80.0235 9.47023 79.8202C8.4369 77.7069 6.7769 77.1569 4.49023 78.1702C8.05023 64.0569 13.3402 50.5036 20.3602 37.5102L23.0702 31.9702Z" fill="#53A84C"/>
<path id="Vector_9" d="M20.3594 37.5098C13.3394 50.5031 8.04941 64.0564 4.48941 78.1698C3.08941 83.4098 3.3094 87.7431 5.14941 91.1698C5.00274 91.9965 4.0694 92.7164 2.3494 93.3298C0.736069 90.5964 0.142737 87.3231 0.569403 83.5098C3.9694 68.1698 9.17274 53.4931 16.1794 39.4798C16.6327 40.2598 17.2127 40.4498 17.9194 40.0498C18.2127 39.8831 18.4327 39.6464 18.5794 39.3398C18.9994 38.4198 19.5927 37.8098 20.3594 37.5098Z" fill="#A6CF8D"/>
<path id="Vector_10" d="M83.0493 46.1602L88.0993 59.1602C82.1793 69.0268 74.1893 76.2735 64.1293 80.9001C59.3493 83.1001 51.2593 82.2601 45.9793 82.3601C45.6526 82.3668 45.346 82.4535 45.0593 82.6201C39.846 85.7935 34.5493 87.2901 29.1693 87.1101C25.6426 86.9901 22.846 85.7602 20.7793 83.4202C22.9993 81.0602 25.376 79.2235 27.9093 77.9102C28.2226 77.7502 28.436 77.5035 28.5493 77.1702C28.736 76.6168 29.1293 76.3202 29.7293 76.2802C30.1826 76.2468 30.5193 76.2535 30.7393 76.3001C31.7193 76.5268 32.5426 76.2402 33.2093 75.4402C33.3002 75.3335 33.4126 75.2479 33.5386 75.1891C33.6646 75.1304 33.8014 75.1001 33.9393 75.1002C35.8093 75.1002 36.2793 73.8701 37.6693 73.2901C41.436 71.7101 45.026 70.7635 48.4393 70.4501C52.5593 70.0702 55.2993 68.5702 59.1793 67.7402C62.4393 67.0402 67.2593 61.5102 69.9393 59.3202C72.0893 57.5702 71.4993 55.5901 74.8093 54.5901C75.1093 54.5035 75.3693 54.3435 75.5893 54.1102L83.0493 46.1602Z" fill="#53A84C"/>
<path id="Vector_11" d="M96.5296 51.8096C98.3963 55.8229 100.49 61.5329 102.81 68.9396C105.276 76.7929 106.686 83.7629 107.04 89.8496C104.846 93.8029 102.183 96.7896 99.0496 98.8096C96.243 100.623 93.2696 102.103 90.1296 103.25C65.5296 112.236 41.0929 112.306 16.8196 103.46C11.2729 101.44 6.44961 98.0629 2.34961 93.3296C4.06961 92.7162 5.00295 91.9963 5.14961 91.1696L7.97961 94.2596C11.6529 97.2262 15.5996 99.4663 19.8196 100.98C41.4063 108.713 63.1596 108.936 85.0796 101.65C91.2096 99.6096 100.81 94.6996 102.26 87.9896C103.8 80.8996 99.6896 69.7596 97.1896 62.6096L94.1496 53.2996C95.8696 53.4996 96.6629 53.0029 96.5296 51.8096Z" fill="#719418"/>
<path id="Vector_12" d="M97.1899 62.6099C99.6899 69.7599 103.8 80.8999 102.26 87.9899C100.81 94.6999 91.2099 99.6099 85.0799 101.65C63.1599 108.937 41.4066 108.713 19.8199 100.98C15.5999 99.4665 11.6533 97.2265 7.97993 94.2599C7.95326 93.8599 7.99993 93.6032 8.11993 93.4899C8.25892 93.3534 8.43265 93.2573 8.62276 93.2115C8.81287 93.1657 9.01229 93.1721 9.19993 93.2299L29.9699 99.9199C32.4233 101.18 34.8066 101.693 37.1199 101.46L46.7899 102.23C56.0499 104.6 66.4299 104.43 75.1999 100.14C79.8499 99.2899 91.1299 96.3899 94.2199 92.8699C94.4866 92.5632 94.4299 92.4765 94.0499 92.6099C87.1833 95.0432 81.1866 96.4532 76.0599 96.8399C75.5866 96.4465 75.3999 95.8965 75.4999 95.1899C75.5132 95.0981 75.5512 95.0117 75.6099 94.9399L83.1599 86.0199C83.2425 85.9247 83.3468 85.8512 83.4636 85.8059C83.5804 85.7606 83.7062 85.7448 83.8299 85.7599C85.2499 85.9299 86.2699 86.0499 87.6899 86.7899C91.4233 88.7232 94.8633 87.6132 98.0099 83.4599C98.5633 81.2799 98.3933 78.5432 97.4999 75.2499C95.2733 67.0565 92.9933 59.8899 90.6599 53.7499L91.1999 52.4699C91.2334 52.3935 91.2862 52.3272 91.3531 52.2775C91.42 52.2277 91.4987 52.1962 91.5814 52.1861C91.6642 52.1761 91.7481 52.1877 91.825 52.2199C91.9019 52.2521 91.9691 52.3038 92.0199 52.3699L93.2999 54.0399C93.5199 54.3199 93.6599 54.6365 93.7199 54.9899C94.1999 57.9299 95.3566 60.4699 97.1899 62.6099Z" fill="#244B0D"/>
<path id="Vector_13" d="M88.0994 59.1602L91.7694 68.4902C90.7094 68.5902 90.1828 68.9802 90.1894 69.6602C90.1894 69.9935 90.0694 70.2735 89.8294 70.5002L88.3494 71.8902C88.1161 72.1168 87.9994 72.3902 87.9994 72.7102V75.8102C87.9994 76.2635 87.7794 76.5568 87.3394 76.6902C83.7994 77.7635 80.8861 79.7335 78.5994 82.6002C78.3661 82.8935 78.0628 83.0635 77.6894 83.1101C71.5594 83.8701 65.7194 81.2701 59.4994 82.9901C57.4294 83.5601 55.0594 84.9402 52.8094 85.8502C49.0694 87.3602 44.7794 87.1101 40.6894 88.0501C35.3194 89.2801 27.6994 90.6602 22.5494 88.3202C22.0107 88.0762 21.4084 88.0106 20.8308 88.1329C20.2531 88.2553 19.7305 88.5592 19.3394 89.0002C18.2694 90.2002 14.3994 88.4002 13.9594 92.2902C13.9194 92.6635 14.0728 92.9202 14.4194 93.0602C19.5794 95.1002 24.9794 96.4735 30.6194 97.1801C29.9594 98.1068 29.7428 99.0202 29.9694 99.9202L9.19944 93.2302C9.0118 93.1724 8.81238 93.166 8.62227 93.2118C8.43216 93.2576 8.25842 93.3537 8.11944 93.4901C7.99944 93.6035 7.95277 93.8602 7.97944 94.2602L5.14944 91.1702C3.30944 87.7435 3.08944 83.4102 4.48944 78.1702C6.77611 77.1568 8.4361 77.7068 9.46944 79.8202C9.56318 80.0234 9.72499 80.1875 9.92691 80.2841C10.1288 80.3807 10.3581 80.4037 10.5752 80.3491C10.7923 80.2946 10.9835 80.1659 11.1157 79.9853C11.248 79.8047 11.3129 79.5836 11.2994 79.3601C11.1794 76.7601 11.6528 75.7601 12.7194 76.3601C11.9594 79.0201 11.9461 81.3535 12.6794 83.3601C12.8528 83.8335 13.1128 83.8868 13.4594 83.5201C14.9128 81.9868 16.0328 79.6535 16.8194 76.5201C17.7394 79.6401 19.0594 81.9402 20.7794 83.4202C22.8461 85.7602 25.6428 86.9901 29.1694 87.1101C34.5494 87.2901 39.8461 85.7935 45.0594 82.6201C45.3461 82.4535 45.6528 82.3668 45.9794 82.3601C51.2594 82.2601 59.3494 83.1001 64.1294 80.9001C74.1894 76.2735 82.1794 69.0268 88.0994 59.1602Z" fill="#347528"/>
<path id="Vector_14" d="M18.1408 61.6204C18.5341 61.5337 18.8408 62.3704 19.0608 64.1304L16.8208 76.5204C16.0341 79.6537 14.9141 81.987 13.4608 83.5204C13.1141 83.887 12.8541 83.8337 12.6808 83.3603C11.9475 81.3537 11.9608 79.0203 12.7208 76.3603C13.3541 70.9003 15.1608 65.987 18.1408 61.6204Z" fill="#FEFEF3"/>
<path id="Vector_15" d="M91.7693 68.4902C93.5227 73.9236 95.6027 78.9136 98.0093 83.4602C94.8627 87.6136 91.4227 88.7236 87.6893 86.7902C86.2693 86.0502 85.2493 85.9302 83.8293 85.7602C83.7056 85.7451 83.5798 85.7609 83.463 85.8063C83.3462 85.8516 83.2419 85.9251 83.1593 86.0202L75.6093 94.9402C75.5506 95.012 75.5126 95.0984 75.4993 95.1902C75.3993 95.8969 75.586 96.4469 76.0593 96.8402C75.7927 96.5736 75.4493 96.7969 75.0293 97.5102C66.3193 95.4702 54.2193 97.0302 45.4593 98.7802C43.286 98.0469 40.9593 97.8002 38.4793 98.0402C36.0593 96.9669 33.4393 96.6802 30.6193 97.1802C24.9793 96.4736 19.5793 95.1002 14.4193 93.0602C14.0727 92.9202 13.9193 92.6636 13.9593 92.2902C14.3993 88.4002 18.2693 90.2002 19.3393 89.0002C19.7304 88.5593 20.253 88.2554 20.8307 88.133C21.4083 88.0107 22.0105 88.0763 22.5493 88.3202C27.6993 90.6602 35.3193 89.2802 40.6893 88.0502C44.7793 87.1102 49.0693 87.3602 52.8093 85.8502C55.0593 84.9402 57.4293 83.5602 59.4993 82.9902C65.7193 81.2702 71.5593 83.8702 77.6893 83.1102C78.0627 83.0635 78.366 82.8936 78.5993 82.6002C80.886 79.7336 83.7993 77.7636 87.3393 76.6902C87.7793 76.5569 87.9993 76.2636 87.9993 75.8102V72.7102C87.9993 72.3902 88.116 72.1169 88.3493 71.8902L89.8293 70.5002C90.0693 70.2736 90.1893 69.9936 90.1893 69.6602C90.1827 68.9802 90.7093 68.5902 91.7693 68.4902Z" fill="#29611C"/>
<path id="Vector_16" d="M75.1993 100.14C75.6593 98.9604 75.6026 98.0838 75.0293 97.5104C75.4493 96.7971 75.7926 96.5738 76.0593 96.8404C81.186 96.4538 87.1826 95.0437 94.0493 92.6104C94.4293 92.4771 94.486 92.5638 94.2193 92.8704C91.1293 96.3904 79.8493 99.2904 75.1993 100.14Z" fill="#347528"/>
<path id="Vector_17" d="M75.0306 97.5104C75.6039 98.0837 75.6606 98.9604 75.2006 100.14C66.4306 104.43 56.0506 104.6 46.7906 102.23C44.9973 101.384 44.5539 100.234 45.4606 98.7803C54.2206 97.0303 66.3206 95.4704 75.0306 97.5104Z" fill="#53A84C"/>
<path id="Vector_18" d="M38.4797 98.0398C39.5264 99.3731 39.0731 100.513 37.1197 101.46C34.8064 101.693 32.4231 101.18 29.9697 99.9198C29.7431 99.0198 29.9597 98.1064 30.6197 97.1797C33.4397 96.6797 36.0597 96.9664 38.4797 98.0398Z" fill="#53A84C"/>
<path id="Vector_19" d="M38.4791 98.0399C40.9591 97.7999 43.2858 98.0466 45.4591 98.7799C44.5525 100.233 44.9958 101.383 46.7891 102.23L37.1191 101.46C39.0725 100.513 39.5258 99.3733 38.4791 98.0399Z" fill="#347528"/>
</g>
</svg>
