<svg width="107" height="97" viewBox="0 0 107 97" fill="none" xmlns="http://www.w3.org/2000/svg">
<g id="Group 9">
<g id="Group 8">
<path id="Vector" d="M40.8793 6.58952C45.5193 10.3095 52.3393 17.9395 58.6593 12.1895C63.186 8.07618 68.176 4.79952 73.6293 2.35952C74.4626 3.02618 74.676 3.48285 74.2693 3.72952C69.456 6.61618 64.7626 9.67951 60.1893 12.9195C53.2493 17.8295 50.3193 15.9695 44.3193 11.1695C38.4793 5.99951 30.8493 1.78951 22.8693 2.66951C13.0226 3.76952 6.28263 9.37285 2.64929 19.4795C2.50263 19.6595 2.31596 19.7562 2.08929 19.7695C1.76263 19.7895 1.58262 19.6395 1.54929 19.3195C1.50929 18.9929 1.4193 18.8128 1.2793 18.7795C2.36596 13.8795 4.72595 9.83619 8.35928 6.64952C18.6593 -2.37048 30.3593 -0.640483 40.8793 6.58952Z" fill="#FEB0DB"/>
<path id="Vector_2" d="M36.1799 86.9701C37.1866 86.3834 37.8566 85.5201 38.1899 84.3801C44.2399 89.8001 50.9099 95.2701 59.1199 90.1101C81.7499 75.9001 101.4 55.2301 105.01 28.0801C105.103 27.3734 104.797 26.9801 104.09 26.9001C102.63 26.7267 101.487 27.1034 100.66 28.0301C100.473 28.2367 100.34 28.4734 100.26 28.7401C95.2099 44.9401 82.7299 57.4301 68.6099 67.0701C59.6699 73.1801 49.1999 76.3901 38.8599 72.1601C36.9599 71.3801 34.8799 69.84 32.9099 68.7501C31.5599 67.9901 30.6099 66.6301 28.9899 65.9401C22.6399 63.2401 19.2699 57.2801 14.5199 51.7701C14.1399 51.3234 13.8599 51.3801 13.6799 51.9401L13.4899 52.5601C13.3699 52.9267 13.4499 53.2434 13.7299 53.5101C14.8299 54.5567 14.8332 56.1567 13.7399 58.3101C7.25323 48.9767 3.31326 39.0101 1.91992 28.4101L3.96991 27.3101C4.24991 27.1634 4.36324 26.9334 4.30991 26.6201C3.43657 21.6601 4.44323 17.8634 7.3299 15.2301C4.16323 21.4034 4.27325 27.0434 7.65991 32.1501C8.22658 33.4367 8.49323 35.0501 8.4599 36.9901C7.81323 40.1034 8.4999 42.9534 10.5199 45.5401C11.3332 46.5801 11.9699 46.4834 12.4299 45.2501L12.9599 43.8501C18.0399 51.9101 24.5399 58.1001 32.4599 62.4201C36.3599 64.5501 40.3999 64.3101 44.6999 64.2401C52.5399 64.4701 63.4499 58.9301 69.3799 55.5601C69.6466 55.4067 69.9332 55.3101 70.2399 55.2701C70.5666 55.2301 70.8732 55.1034 71.1599 54.8901C80.8999 47.8101 88.6899 42.5401 95.2699 32.0101C97.7232 28.0901 98.7132 24.6934 98.2399 21.8201C99.7866 19.9267 100.233 17.8767 99.5799 15.6701C97.7332 9.45005 93.9432 7.05339 88.2099 8.48005C86.0766 8.07339 84.2832 8.70006 82.8299 10.3601C82.7299 10.0334 82.7566 9.63339 82.9099 9.16006C83.9366 8.64672 84.4299 8.11672 84.3899 7.57006C84.3633 7.14339 83.9632 6.80006 83.1899 6.54006C81.8599 6.09006 80.6399 5.35006 79.1999 5.57006C70.7266 6.86339 64.3632 11.2067 60.1099 18.6001C58.4899 19.5867 56.6832 20.2601 54.6899 20.6201C49.6432 21.5401 45.8233 20.2667 43.2299 16.8001C43.0833 15.7267 42.5299 14.7334 41.5699 13.8201L44.3199 11.1701C50.3199 15.9701 53.2499 17.8301 60.1899 12.9201C64.7632 9.68005 69.4566 6.61672 74.2699 3.73005C74.6766 3.48339 74.4632 3.02672 73.6299 2.36006C78.3166 0.533389 82.2766 -0.0866113 85.5099 0.500055C106 4.22006 109.45 23.7901 103.96 40.9501C96.8299 63.2501 78.9299 82.4 59.6299 95.09C50.8899 100.84 41.5999 91.9501 36.1799 86.9701Z" fill="#D5167A"/>
<path id="Vector_3" d="M44.3199 11.1697L41.5699 13.8197C31.0999 1.91966 17.0999 3.82966 7.3299 15.2297C4.44323 17.863 3.43657 21.6597 4.30991 26.6197C4.36324 26.933 4.24991 27.163 3.96991 27.3097L1.91992 28.4097L2.6499 19.4797C6.28324 9.373 13.0232 3.76966 22.8699 2.66966C30.8499 1.78966 38.4799 5.99966 44.3199 11.1697Z" fill="#E25396"/>
<path id="Vector_4" d="M82.9094 9.16022C74.8994 12.8902 66.5794 19.2902 60.1094 18.6002C64.3627 11.2069 70.7261 6.86355 79.1994 5.57021C80.6394 5.35021 81.8594 6.09022 83.1894 6.54022C83.9627 6.80022 84.3627 7.14355 84.3894 7.57021C84.4294 8.11688 83.9361 8.64688 82.9094 9.16022Z" fill="#FFFEFC"/>
<path id="Vector_5" d="M41.5704 13.8198C42.5304 14.7332 43.0838 15.7265 43.2304 16.7998C43.1838 17.1998 42.6238 17.2765 41.5504 17.0298C40.5171 16.7965 39.5104 16.5232 38.5304 16.2098C25.5104 9.66982 13.8504 12.3098 9.63044 27.1198C9.1571 28.7865 8.50043 30.4632 7.66043 32.1498C4.27377 27.0432 4.16375 21.4032 7.33042 15.2298C17.1004 3.82982 31.1004 1.91982 41.5704 13.8198Z" fill="#FFFEFC"/>
<path id="Vector_6" d="M98.2409 21.8203C96.0609 18.4803 95.0309 15.4403 92.2409 12.6403C91.0076 11.4003 89.6643 10.0137 88.2109 8.48032C93.9443 7.05366 97.7343 9.45032 99.5809 15.6703C100.234 17.877 99.7876 19.927 98.2409 21.8203Z" fill="#FFFEFC"/>
<path id="Vector_7" d="M88.2092 8.48038C89.6625 10.0137 91.0059 11.4004 92.2392 12.6404C95.0292 15.4404 96.0592 18.4804 98.2392 21.8204C98.7125 24.6937 97.7225 28.0904 95.2692 32.0104C88.6892 42.5404 80.8992 47.8104 71.1592 54.8904C70.8725 55.1037 70.5659 55.2304 70.2392 55.2704C69.9325 55.3104 69.6459 55.4071 69.3792 55.5604C63.4492 58.9304 52.5392 64.4704 44.6992 64.2404L48.0592 63.1404C48.1777 63.1009 48.2868 63.0361 48.3792 62.9504C50.3892 61.1104 52.9592 60.5404 54.8692 59.3204C62.5892 54.4104 69.1692 48.4804 74.2592 40.8404C77.9692 35.2604 84.9592 27.4804 76.7992 21.5104C74.5992 19.9037 72.3859 19.0904 70.1592 19.0704L67.8392 18.6004L82.8292 10.3604C84.2825 8.70038 86.0759 8.07372 88.2092 8.48038Z" fill="#E53190"/>
<path id="Vector_8" d="M82.9099 9.16016C82.7565 9.63349 82.7298 10.0335 82.8298 10.3602L67.8398 18.6002C61.2298 21.1102 54.5498 27.0102 46.1098 25.8502L34.8499 20.6402C34.8299 18.7302 36.0298 15.9202 38.5298 16.2102C39.5098 16.5235 40.5165 16.7968 41.5498 17.0302C42.6232 17.2768 43.1832 17.2002 43.2299 16.8002C45.8232 20.2668 49.6432 21.5402 54.6899 20.6202C56.6832 20.2602 58.4898 19.5868 60.1098 18.6002C66.5798 19.2902 74.8998 12.8902 82.9099 9.16016Z" fill="#F356AA"/>
<path id="Vector_9" d="M38.5302 16.2097C36.0302 15.9197 34.8302 18.7297 34.8502 20.6397C25.1802 16.4697 16.2101 21.6197 16.7401 32.6097C13.0401 32.3497 11.2301 33.9497 9.49014 36.9397L8.46014 36.9897C8.49348 35.0497 8.22682 33.4363 7.66016 32.1497C8.50016 30.463 9.15682 28.7863 9.63016 27.1197C13.8502 12.3097 25.5102 9.66967 38.5302 16.2097Z" fill="#FB7ABE"/>
<path id="Vector_10" d="M1.27905 18.7803C1.41905 18.8136 1.50903 18.9936 1.54903 19.3203C1.58237 19.6403 1.76238 19.7903 2.08904 19.7703C2.31571 19.7569 2.50237 19.6603 2.64904 19.4803L1.91906 28.4103C3.31239 39.0103 7.25237 48.9769 13.739 58.3103C20.6724 67.9569 28.8224 76.6469 38.189 84.3803C37.8557 85.5203 37.1857 86.3836 36.179 86.9703C22.4457 75.9303 11.9257 62.4803 4.61904 46.6203C1.24904 37.3103 -0.890954 28.3803 1.27905 18.7803Z" fill="#F356AA"/>
<path id="Vector_11" d="M67.8403 18.5996L70.1603 19.0696C69.787 24.5563 68.157 29.8063 65.2703 34.8196C64.0203 36.9896 61.6403 38.1696 59.9903 40.4996C54.9303 47.6596 43.6803 52.6496 35.6403 55.3196C34.0303 55.8596 32.7003 56.6496 31.3503 57.4896C30.8791 57.784 30.3202 57.906 29.768 57.8349C29.2159 57.7638 28.7045 57.5041 28.3203 57.0996C23.627 52.1529 20.127 46.1796 17.8203 39.1796C26.5103 39.6996 45.4003 36.9196 46.1103 25.8496C54.5503 27.0096 61.2303 21.1096 67.8403 18.5996Z" fill="#FB7ABE"/>
<path id="Vector_12" d="M70.1602 19.0703C72.3869 19.0903 74.6002 19.9036 76.8002 21.5103C84.9602 27.4803 77.9703 35.2603 74.2603 40.8403C69.1703 48.4803 62.5902 54.4103 54.8702 59.3203C52.9602 60.5403 50.3902 61.1103 48.3802 62.9503C48.2878 63.036 48.1787 63.1008 48.0602 63.1403L44.7003 64.2403C40.4003 64.3103 36.3602 64.5503 32.4602 62.4203C24.5402 58.1003 18.0402 51.9103 12.9602 43.8503C12.3736 41.4436 11.2169 39.1403 9.49023 36.9403C11.2302 33.9503 13.0402 32.3503 16.7402 32.6103L17.8203 39.1803C20.1269 46.1803 23.6269 52.1536 28.3203 57.1003C28.7044 57.5048 29.2158 57.7645 29.768 57.8356C30.3201 57.9067 30.8791 57.7847 31.3503 57.4903C32.7003 56.6503 34.0303 55.8603 35.6403 55.3203C43.6803 52.6503 54.9302 47.6603 59.9902 40.5003C61.6402 38.1703 64.0202 36.9903 65.2702 34.8203C68.1569 29.807 69.7869 24.557 70.1602 19.0703Z" fill="#F356AA"/>
<path id="Vector_13" d="M34.8492 20.6402L46.1092 25.8502C45.3992 36.9202 26.5092 39.7002 17.8192 39.1802L16.7392 32.6102C16.2092 21.6202 25.1792 16.4702 34.8492 20.6402Z" fill="#FEB0DB"/>
<path id="Vector_14" d="M38.1896 84.3803C28.8229 76.647 20.6729 67.957 13.7395 58.3103C14.8329 56.157 14.8296 54.557 13.7296 53.5103C13.4496 53.2437 13.3695 52.927 13.4895 52.5603L13.6795 51.9403C13.8595 51.3803 14.1395 51.3237 14.5195 51.7703C19.2695 57.2803 22.6395 63.2403 28.9895 65.9403C30.6095 66.6303 31.5596 67.9903 32.9096 68.7503C34.8796 69.8403 36.9595 71.3803 38.8595 72.1603C49.1995 76.3903 59.6695 73.1803 68.6095 67.0703C82.7295 57.4303 95.2096 44.9403 100.26 28.7403C100.34 28.4737 100.473 28.237 100.66 28.0303C101.486 27.1037 102.63 26.727 104.09 26.9003C104.796 26.9803 105.103 27.3737 105.01 28.0803C101.4 55.2303 81.7495 75.9003 59.1195 90.1103C50.9095 95.2703 44.2396 89.8003 38.1896 84.3803ZM77.1495 67.3103C74.9095 68.5037 73.0829 69.997 71.6696 71.7903C66.9996 73.3503 58.1195 78.1103 55.4595 83.5303C55.3699 83.7119 55.3478 83.9197 55.3972 84.1173C55.4466 84.3148 55.5643 84.4894 55.7296 84.6103C61.4796 88.7903 71.2796 78.3103 73.0596 74.2903C75.1595 73.037 76.9395 71.3037 78.3995 69.0903C81.6195 67.5503 83.6429 65.1437 84.4696 61.8703C84.4927 61.7787 84.4919 61.6826 84.4671 61.5914C84.4423 61.5002 84.3945 61.4169 84.3282 61.3496C84.2618 61.2822 84.1793 61.2331 84.0884 61.207C83.9976 61.1808 83.9015 61.1786 83.8095 61.2003C80.5162 62.0003 78.2962 64.037 77.1495 67.3103Z" fill="#AE055E"/>
<path id="Vector_15" d="M8.45983 36.9904L9.48983 36.9404C11.2165 39.1404 12.3732 41.4438 12.9598 43.8504L12.4298 45.2504C11.9698 46.4838 11.3332 46.5804 10.5198 45.5404C8.49983 42.9538 7.81317 40.1038 8.45983 36.9904Z" fill="#FFE9FF"/>
<path id="Vector_16" d="M78.4004 69.0904C77.6271 68.577 77.2104 67.9837 77.1504 67.3104C78.2971 64.037 80.5171 62.0004 83.8104 61.2004C83.9024 61.1786 83.9984 61.1809 84.0893 61.207C84.1801 61.2331 84.2627 61.2822 84.329 61.3496C84.3953 61.4169 84.4432 61.5002 84.468 61.5914C84.4927 61.6827 84.4936 61.7787 84.4704 61.8704C83.6437 65.1437 81.6204 67.5504 78.4004 69.0904Z" fill="#F356AA"/>
<path id="Vector_17" d="M77.1499 67.3096C77.2099 67.9829 77.6266 68.5762 78.3999 69.0896C76.9399 71.3029 75.1599 73.0362 73.0599 74.2896C72.7732 73.1496 72.3099 72.3162 71.6699 71.7896C73.0833 69.9962 74.9099 68.5029 77.1499 67.3096Z" fill="#D5167A"/>
<path id="Vector_18" d="M71.6693 71.79C72.3093 72.3167 72.7726 73.15 73.0592 74.29C71.2792 78.31 61.4793 88.79 55.7293 84.61C55.564 84.4891 55.4462 84.3145 55.3969 84.117C55.3475 83.9194 55.3695 83.7116 55.4592 83.53C58.1192 78.11 66.9993 73.35 71.6693 71.79Z" fill="#F356AA"/>
</g>
</g>
</svg>
