<svg width="103" height="100" viewBox="0 0 103 100" fill="none" xmlns="http://www.w3.org/2000/svg">
<g id="Group 12">
<path id="Vector" d="M46.0004 0.800473C61.7471 0.487139 76.9471 2.02713 91.6004 5.42047C92.2871 6.3538 92.0371 7.07048 90.8504 7.57048C90.5371 7.70381 90.2237 7.70047 89.9104 7.56047C82.2804 4.25047 72.5004 3.51047 64.2604 3.14047C54.5804 2.70047 48.2404 2.25048 40.2004 2.85048C31.2604 2.95048 22.5271 4.33048 14.0004 6.99048C5.2304 9.72048 4.4604 22.1405 3.8904 30.2505C3.14373 40.8905 3.04707 51.5471 3.6004 62.2205C3.63374 62.8805 3.51374 63.3605 3.2404 63.6605C2.81374 64.1405 2.23373 64.2371 1.5004 63.9505L0.900391 46.8205C1.22039 36.3338 2.39706 26.0538 4.43039 15.9805C5.98039 8.28047 10.7704 5.50047 18.4604 3.98047C27.5204 2.20047 36.7004 1.14047 46.0004 0.800473Z" fill="#EBACFD"/>
<path id="Vector_2" d="M91.5994 5.42014C95.3794 7.82681 97.6161 10.3335 98.3094 12.9401C101.843 26.1201 103.209 40.8968 102.409 57.2701C101.476 60.7368 100.599 61.0968 99.7794 58.3502C100.693 44.2302 99.4528 30.0935 96.0594 15.9401C95.3861 13.1268 94.0028 11.1768 91.9094 10.0901C90.3961 9.90347 89.0561 10.8068 87.8895 12.8001C87.7801 12.9606 87.6149 13.0745 87.426 13.1196C87.2371 13.1647 87.0382 13.1377 86.8682 13.044C86.6982 12.9502 86.5692 12.7964 86.5066 12.6126C86.4439 12.4288 86.4521 12.2282 86.5294 12.0501L87.7694 9.70014C87.8539 9.54851 87.8821 9.37264 87.849 9.20299C87.8159 9.03335 87.7236 8.88065 87.5882 8.77138C87.4529 8.66212 87.2828 8.60317 87.1077 8.60477C86.9326 8.60637 86.7634 8.66842 86.6294 8.78014L83.7494 11.1401C69.0628 8.23348 54.3461 7.29349 39.5994 8.32015L35.9894 8.75014C35.9716 8.75043 35.9542 8.74474 35.9399 8.73399C35.9257 8.72323 35.9154 8.70802 35.9108 8.69077C35.9063 8.67353 35.9076 8.65524 35.9145 8.63882C35.9215 8.6224 35.9338 8.60879 35.9494 8.60015C36.0494 8.56682 36.1528 8.53681 36.2594 8.51014C36.5328 8.45014 36.5028 8.38348 36.1694 8.31014C36.0628 8.28348 35.9561 8.22681 35.8494 8.14014C35.8158 8.11465 35.7912 8.07965 35.7787 8.03965C35.7663 7.99965 35.7665 7.95646 35.7794 7.91563C35.7923 7.87479 35.8172 7.83818 35.8511 7.81048C35.885 7.78278 35.9262 7.76524 35.9694 7.76014L36.6894 7.71015C36.7107 7.71015 36.731 7.70172 36.746 7.68671C36.761 7.67171 36.7694 7.65137 36.7694 7.63015C36.7694 7.60893 36.761 7.58857 36.746 7.57357C36.731 7.55857 36.7107 7.55015 36.6894 7.55015L36.2794 7.49015C36.1128 7.47015 36.1061 7.42348 36.2594 7.35015L37.8894 6.54014C38.1961 6.3868 38.3494 6.14015 38.3494 5.80015C38.3628 3.92015 38.9794 2.93682 40.1994 2.85015C48.2394 2.25015 54.5794 2.70014 64.2594 3.14014C72.4994 3.51014 82.2794 4.25014 89.9094 7.56014C90.2228 7.70014 90.5361 7.70349 90.8494 7.57015C92.0361 7.07015 92.2861 6.35348 91.5994 5.42014Z" fill="#BA54F4"/>
<path id="Vector_3" d="M40.2 2.84961C38.98 2.93628 38.3633 3.91961 38.35 5.79961C38.35 6.13961 38.1967 6.38626 37.89 6.5396L36.26 7.34961C36.1067 7.42294 36.1133 7.46961 36.28 7.48961L36.69 7.54961C36.7112 7.54961 36.7316 7.55803 36.7466 7.57303C36.7616 7.58803 36.77 7.60839 36.77 7.62961C36.77 7.65083 36.7616 7.67117 36.7466 7.68617C36.7316 7.70118 36.7112 7.70961 36.69 7.70961L35.97 7.7596C35.9267 7.7647 35.8855 7.78223 35.8517 7.80994C35.8178 7.83764 35.7928 7.87425 35.7799 7.91508C35.767 7.95592 35.7668 7.9991 35.7793 8.03911C35.7918 8.07911 35.8164 8.11411 35.85 8.1396C35.9567 8.22627 36.0633 8.28293 36.17 8.3096C36.5033 8.38293 36.5333 8.4496 36.26 8.5096C36.1533 8.53626 36.05 8.56628 35.95 8.59961C35.9344 8.60825 35.9221 8.62185 35.9151 8.63828C35.9081 8.6547 35.9068 8.67299 35.9114 8.69023C35.916 8.70748 35.9263 8.72268 35.9405 8.73344C35.9547 8.7442 35.9722 8.74989 35.99 8.7496L39.6 8.31961C34.8733 9.33961 33.1 11.5163 34.28 14.8496C31.38 14.6963 28.21 15.5663 24.77 17.4596C21.01 19.0396 18.3867 21.9629 16.9 26.2296L14.44 41.6396C13.5267 46.9263 13.2433 52.2596 13.59 57.6396C13.61 58.0063 13.47 58.2929 13.17 58.4996C12.2833 59.1263 11.3367 59.2363 10.33 58.8296C9.99185 58.6923 9.62628 58.636 9.2625 58.6653C8.89872 58.6945 8.54682 58.8084 8.23491 58.9978C7.923 59.1873 7.65974 59.4471 7.46616 59.7565C7.27257 60.0659 7.15402 60.4162 7.12 60.7796L6.66 65.4596C6.64796 65.5633 6.67056 65.6687 6.72452 65.7604C6.77847 65.8521 6.86097 65.9254 6.96001 65.9696C7.09334 66.0296 7.20667 66.1129 7.3 66.2196C7.42667 66.3729 7.5 66.5863 7.52 66.8596C7.84667 71.4129 8.25 75.9863 8.73 80.5796C8.76333 80.9196 8.69334 81.2396 8.52 81.5396C7.62667 83.1129 7.88 84.8729 9.28 86.8196C9.96667 89.1863 11.7367 90.8696 14.59 91.8696C15.17 92.8829 14.98 94.2896 14.02 96.0896C9.4 94.2896 6.56 91.6763 5.5 88.2496C3.70667 82.4563 2.37333 74.3563 1.5 63.9496C2.23333 64.2363 2.81334 64.1396 3.24001 63.6596C3.51334 63.3596 3.63334 62.8796 3.60001 62.2196C3.04667 51.5463 3.14333 40.8896 3.89 30.2496C4.46 22.1396 5.23 9.71961 14 6.98961C22.5267 4.32961 31.26 2.94961 40.2 2.84961ZM21.23 16.8396C20.42 13.3896 17.41 6.1496 12.59 8.7896C4.64 13.1396 11.73 18.2596 16.92 20.5796C17.28 20.7396 17.6067 20.6896 17.9 20.4296L20.96 17.6996C21.22 17.4663 21.31 17.1796 21.23 16.8396Z" fill="#C375F3"/>
<path id="Vector_4" d="M12.5905 8.78992C17.4105 6.14992 20.4205 13.3899 21.2305 16.8399C21.3105 17.1799 21.2205 17.4666 20.9605 17.6999L17.9005 20.4299C17.6072 20.6899 17.2805 20.7399 16.9205 20.5799C11.7305 18.2599 4.64051 13.1399 12.5905 8.78992Z" fill="#FFFEFC"/>
<path id="Vector_5" d="M83.7494 11.1399L81.6494 16.7299C81.536 17.0433 81.3127 17.2066 80.9794 17.2199C80.4061 17.2466 80.1461 17.4299 80.1994 17.7699C79.7994 17.8566 79.5061 17.6833 79.3194 17.2499C78.9061 16.7166 78.6061 16.4099 78.4194 16.3299C74.1661 14.4299 69.8861 14.0833 65.5794 15.2899C63.666 15.4433 61.936 15.1899 60.3894 14.5299C51.6094 12.8566 42.906 12.9633 34.2794 14.8499C33.0994 11.5166 34.8727 9.33994 39.5994 8.31994C54.3461 7.29327 69.0627 8.23326 83.7494 11.1399Z" fill="#AB36D8"/>
<path id="Vector_6" d="M91.9106 10.0899C93.9173 12.1232 94.004 14.2166 92.1706 16.3699C91.9506 16.6299 91.9373 16.8999 92.1306 17.1799C92.6706 17.9666 93.0406 18.8232 93.2406 19.7499C96.7906 36.5799 97.8906 52.9699 96.0106 70.0799C95.4573 75.0532 95.0373 80.1332 94.7506 85.3199C94.0306 89.1066 91.844 91.3966 88.1906 92.1899C75.944 94.8432 61.734 96.0832 45.5606 95.9099C45.2806 94.9432 45.3406 94.5366 45.7406 94.6899C49.5606 94.8299 53.3673 94.8066 57.1606 94.6199C60.3006 94.4599 61.5706 91.6699 64.8506 92.9699C67.1906 93.8999 69.1806 93.8199 71.1206 92.1099C71.3665 91.8902 71.6812 91.7629 72.0106 91.7499C75.0173 91.6099 78.0106 91.3399 80.9906 90.9399C81.2773 90.9066 81.3406 90.7832 81.1806 90.5699C81.0673 90.4166 80.9173 90.3465 80.7306 90.3599C74.7206 90.9099 69.1006 88.5499 63.4706 90.3999C63.3104 90.4521 63.1402 90.4648 62.9747 90.437C62.8092 90.4091 62.6534 90.3414 62.5206 90.2399C58.7706 87.3899 49.5306 88.2899 44.9706 88.7099C44.584 88.5232 44.3906 87.7266 44.3906 86.3199C56.4906 88.2666 68.1073 87.2432 79.2406 83.2499C82.194 81.6499 84.3406 79.3332 85.6806 76.2999C88.434 72.8732 88.9873 69.0432 87.3406 64.8099L87.9706 60.9699C91.4706 50.4799 88.7406 33.1299 85.7606 23.2999C85.6704 23.0032 85.4792 22.7483 85.2206 22.5799L84.7006 22.2299C83.5873 20.2566 82.0873 18.7699 80.2006 17.7699C80.1473 17.4299 80.4073 17.2466 80.9806 17.2199C81.314 17.2066 81.5373 17.0432 81.6506 16.7299L83.7506 11.1399L86.6306 8.77989C86.7646 8.66817 86.9338 8.60612 87.1089 8.60452C87.284 8.60292 87.454 8.66187 87.5894 8.77113C87.7248 8.8804 87.8171 9.0331 87.8502 9.20274C87.8833 9.37239 87.8551 9.54826 87.7706 9.69989L86.5306 12.0499C86.4533 12.228 86.4451 12.4285 86.5077 12.6123C86.5704 12.7961 86.6993 12.9499 86.8694 13.0437C87.0394 13.1375 87.2383 13.1645 87.4272 13.1194C87.616 13.0743 87.7813 12.9604 87.8906 12.7999C89.0573 10.8066 90.3973 9.90322 91.9106 10.0899ZM90.0606 89.9999L93.0806 87.1699C93.2583 87.0034 93.4014 86.8034 93.5016 86.5814C93.6018 86.3595 93.6573 86.1199 93.6647 85.8765C93.6721 85.6331 93.6314 85.3906 93.5449 85.1629C93.4584 84.9353 93.3278 84.7269 93.1606 84.5499L91.6106 82.8999C90.4577 81.6727 89.0957 80.7369 87.8243 80.298C86.5529 79.8592 85.476 79.9534 84.8306 80.5599L83.9906 81.3499C83.6697 81.6496 83.4646 82.0665 83.3869 82.5766C83.3092 83.0868 83.3605 83.6802 83.5379 84.3229C83.7154 84.9657 84.0153 85.6451 84.4208 86.3224C84.8262 86.9996 85.3291 87.6614 85.9006 88.2699L87.4506 89.9199C87.7866 90.2758 88.2499 90.484 88.7391 90.499C89.2283 90.514 89.7035 90.3345 90.0606 89.9999Z" fill="#6812AE"/>
<path id="Vector_7" d="M91.9102 10.0898C94.0035 11.1765 95.3868 13.1265 96.0602 15.9398C99.4535 30.0932 100.693 44.2299 99.7802 58.3499C99.8502 64.9699 99.6502 80.2799 94.7502 85.3199C95.0368 80.1332 95.4568 75.0532 96.0102 70.0798C97.8902 52.9698 96.7901 36.5798 93.2401 19.7498C93.0401 18.8232 92.6702 17.9665 92.1302 17.1798C91.9368 16.8998 91.9502 16.6298 92.1702 16.3698C94.0035 14.2165 93.9168 12.1232 91.9102 10.0898Z" fill="#9A26CD"/>
<path id="Vector_8" d="M60.3895 14.5304C55.5429 15.637 50.3995 16.2437 44.9595 16.3504L24.7695 17.4604C28.2095 15.5671 31.3795 14.6971 34.2795 14.8504C42.9062 12.9637 51.6095 12.857 60.3895 14.5304Z" fill="#FFE9FF"/>
<path id="Vector_9" d="M60.3898 14.5303C61.9365 15.1903 63.6665 15.4436 65.5798 15.2903C69.5332 17.2369 73.8132 18.0969 78.4199 17.8703L77.9099 23.7203C77.8765 24.1003 78.0265 24.3869 78.3598 24.5803C79.6598 25.3203 79.9699 26.2869 79.2899 27.4803C79.1165 27.7936 79.0765 28.1203 79.1699 28.4603C81.0799 35.5603 82.0799 44.3403 79.9799 51.4803C78.4399 56.7303 75.2398 60.2503 72.7698 64.6103C72.6232 64.8636 72.4165 65.0503 72.1498 65.1703C71.2198 65.6003 70.8298 66.5903 70.3098 67.1803C64.0598 74.3703 55.6698 81.8103 44.5898 79.1003C51.0232 76.1669 55.9132 73.1403 59.2598 70.0203C60.9332 68.4536 62.2932 67.1969 63.3398 66.2503C72.1298 58.3103 76.0898 48.6203 78.5298 37.8803C79.1098 35.2936 79.1998 33.0303 78.7998 31.0903C77.3498 24.0503 73.9798 17.6303 65.6998 18.0103L57.0898 16.9803C52.5965 17.3203 48.5532 17.1103 44.9599 16.3503C50.3999 16.2436 55.5432 15.6369 60.3898 14.5303Z" fill="#C375F3"/>
<path id="Vector_10" d="M79.3201 17.2499C79.3134 17.6233 79.0134 17.8299 78.4201 17.8699C73.8134 18.0966 69.5334 17.2366 65.5801 15.2899C69.8867 14.0833 74.1668 14.4299 78.4201 16.3299C78.6068 16.4099 78.9068 16.7166 79.3201 17.2499Z" fill="#F8D7FF"/>
<path id="Vector_11" d="M44.9604 16.3496C48.5537 17.1096 52.5971 17.3196 57.0904 16.9796C57.2371 18.9663 57.4737 20.9229 57.8004 22.8496C59.9004 35.3296 52.9004 46.2096 44.0304 53.9396C41.6771 55.9929 39.2537 57.4463 36.7604 58.2996C31.7204 60.0096 26.0104 61.0896 20.7304 59.6796C20.3971 59.5929 20.2537 59.7196 20.3004 60.0596L21.4904 68.7996L17.5204 67.1596C16.8104 56.6796 16.6404 45.8196 17.7504 35.0796C18.0637 32.0863 17.7804 29.1363 16.9004 26.2296C18.3871 21.9629 21.0104 19.0396 24.7704 17.4596L44.9604 16.3496Z" fill="#F8D7FF"/>
<path id="Vector_12" d="M57.0896 16.9805L65.6996 18.0105C66.4729 18.2238 67.0463 18.5471 67.4196 18.9805C67.6463 19.2471 67.7229 19.5505 67.6496 19.8905C66.8596 23.7005 67.9396 27.2705 67.4996 30.6305C65.8196 43.4805 60.6396 52.9805 50.5696 61.1005C44.6196 65.8905 28.8796 71.1605 21.4896 68.8005L20.2996 60.0605C20.2529 59.7205 20.3963 59.5938 20.7296 59.6805C26.0096 61.0905 31.7196 60.0105 36.7596 58.3005C39.2529 57.4471 41.6763 55.9938 44.0296 53.9405C52.8996 46.2105 59.8996 35.3305 57.7996 22.8505C57.4729 20.9238 57.2363 18.9671 57.0896 16.9805Z" fill="#EBACFD"/>
<path id="Vector_13" d="M79.3191 17.25C79.5057 17.6833 79.7991 17.8567 80.1991 17.77C82.0857 18.77 83.5857 20.2567 84.6991 22.23C84.4057 22.35 84.2757 22.5033 84.3091 22.69C86.2691 33.71 87.2191 44.7933 87.1591 55.94C86.6724 52.5867 86.3624 53.25 86.2291 57.93C86.1591 60.48 83.6791 65.54 81.9391 67.49C80.4257 69.19 79.1157 71.0267 78.0091 73C76.8591 75.04 72.1691 78.53 69.5291 81.4C68.3291 82.6933 66.6324 83.1567 64.4391 82.79C62.2257 82.41 60.4491 83.0433 59.1091 84.69C54.8691 84.95 50.4991 85.1267 45.9991 85.22C45.2524 85.2333 44.5624 85.47 43.9291 85.93L33.8991 85.11C32.8891 82.35 26.3591 82.47 24.4591 83.39L19.9491 80.19L17.0391 73.9C17.9057 72.7133 18.0657 70.4667 17.5191 67.16L21.4891 68.8C21.7391 70.62 21.8391 72.34 23.1891 73.73C24.8291 75.43 26.2391 76.78 28.6991 77.25C34.4057 78.33 39.7024 78.9467 44.5891 79.1C55.6691 81.81 64.0591 74.37 70.3091 67.18C70.8291 66.59 71.2191 65.6 72.1491 65.17C72.4157 65.05 72.6224 64.8633 72.7691 64.61C75.2391 60.25 78.4391 56.73 79.9791 51.48C82.0791 44.34 81.0791 35.56 79.1691 28.46C79.0757 28.12 79.1157 27.7933 79.2891 27.48C79.9691 26.2867 79.6591 25.32 78.3591 24.58C78.0257 24.3867 77.8757 24.1 77.9091 23.72L78.4191 17.87C79.0124 17.83 79.3124 17.6233 79.3191 17.25Z" fill="#BA54F4"/>
<path id="Vector_14" d="M65.7002 18.0102C73.9802 17.6302 77.3502 24.0502 78.8002 31.0902C79.2002 33.0302 79.1102 35.2935 78.5302 37.8802C76.0902 48.6202 72.1302 58.3102 63.3402 66.2502C62.2936 67.1969 60.9336 68.4535 59.2602 70.0202C55.9136 73.1402 51.0236 76.1669 44.5902 79.1002C39.7036 78.9469 34.4069 78.3302 28.7002 77.2502C26.2402 76.7802 24.8302 75.4302 23.1902 73.7302C21.8402 72.3402 21.7402 70.6202 21.4902 68.8002C28.8802 71.1602 44.6202 65.8902 50.5702 61.1002C60.6402 52.9802 65.8202 43.4802 67.5002 30.6302C67.9402 27.2702 66.8602 23.7002 67.6502 19.8902C67.7236 19.5502 67.6469 19.2469 67.4202 18.9802C67.0469 18.5469 66.4736 18.2235 65.7002 18.0102Z" fill="#DE8FFB"/>
<path id="Vector_15" d="M84.6998 22.2305L85.2198 22.5805C85.4784 22.7489 85.6696 23.0038 85.7598 23.3005C88.7398 33.1305 91.4698 50.4805 87.9698 60.9705C87.1565 59.5505 86.8865 57.8738 87.1598 55.9405C87.2198 44.7938 86.2698 33.7105 84.3098 22.6905C84.2765 22.5038 84.4065 22.3505 84.6998 22.2305Z" fill="#EBACFD"/>
<path id="Vector_16" d="M16.8994 26.2305C17.7794 29.1371 18.0627 32.0871 17.7494 35.0805C16.6394 45.8205 16.8094 56.6805 17.5194 67.1605C18.0661 70.4671 17.9061 72.7138 17.0394 73.9005C14.4794 63.4738 13.6127 52.7205 14.4394 41.6405L16.8994 26.2305Z" fill="#FFE9FF"/>
<path id="Vector_17" d="M14.4394 41.6396C13.6127 52.7196 14.4794 63.473 17.0394 73.8996L19.9494 80.1897C19.6761 80.363 19.4961 80.643 19.4094 81.0296L18.1394 80.0397C17.8594 79.8197 17.5527 79.7663 17.2194 79.8797C14.8294 80.6897 9.9294 82.9196 10.2794 86.1196C9.9194 86.533 9.58607 86.7663 9.2794 86.8197C7.8794 84.873 7.62607 83.113 8.51941 81.5397C8.69274 81.2397 8.76273 80.9196 8.7294 80.5796C8.2494 75.9863 7.84607 71.413 7.51941 66.8596C7.49941 66.5863 7.42607 66.373 7.29941 66.2197C7.20607 66.113 7.09274 66.0296 6.95941 65.9697C6.86038 65.9255 6.77788 65.8522 6.72392 65.7604C6.66997 65.6687 6.64736 65.5633 6.65941 65.4597L7.1194 60.7796C7.15342 60.4163 7.27197 60.0659 7.46556 59.7565C7.65915 59.4472 7.9224 59.1874 8.23431 58.9979C8.54622 58.8084 8.89812 58.6945 9.2619 58.6653C9.62568 58.6361 9.99126 58.6924 10.3294 58.8297C11.3361 59.2363 12.2827 59.1263 13.1694 58.4996C13.4694 58.293 13.6094 58.0063 13.5894 57.6396C13.2427 52.2596 13.5261 46.9263 14.4394 41.6396Z" fill="#AB36D8"/>
<path id="Vector_18" d="M87.1594 55.9395C86.886 57.8728 87.156 59.5495 87.9694 60.9695L87.3394 64.8095C85.386 68.7095 84.8327 72.5395 85.6794 76.2995C84.3394 79.3328 82.1927 81.6495 79.2394 83.2495C72.446 83.1762 65.736 83.6562 59.1094 84.6895C60.4494 83.0428 62.226 82.4095 64.4394 82.7895C66.6327 83.1562 68.3294 82.6928 69.5294 81.3995C72.1694 78.5295 76.8594 75.0395 78.0094 72.9995C79.1161 71.0262 80.426 69.1895 81.9394 67.4895C83.6794 65.5395 86.1594 60.4795 86.2294 57.9295C86.3627 53.2495 86.6727 52.5862 87.1594 55.9395Z" fill="#9A26CD"/>
<path id="Vector_19" d="M102.41 57.2695C102.123 68.7029 100.84 78.6195 98.5595 87.0195C97.0695 92.4995 92.3595 95.5695 86.6195 96.6395C62.3795 101.133 38.1795 100.95 14.0195 96.0895C14.9795 94.2895 15.1695 92.8829 14.5895 91.8695C24.6095 94.1429 34.9329 95.4895 45.5595 95.9095C61.7329 96.0829 75.9429 94.8429 88.1895 92.1895C91.8429 91.3962 94.0295 89.1062 94.7495 85.3195C99.6495 80.2795 99.8495 64.9695 99.7795 58.3495C100.6 61.0962 101.476 60.7362 102.41 57.2695Z" fill="#AB36D8"/>
<path id="Vector_20" d="M87.3409 64.8096C88.9876 69.0429 88.4342 72.8729 85.6809 76.2996C84.8342 72.5396 85.3876 68.7096 87.3409 64.8096Z" fill="#EBACFD"/>
<path id="Vector_21" d="M19.4095 81.0301C22.7695 83.5201 18.2795 88.21 16.2295 89.77C15.9562 89.9767 15.6462 90.0734 15.2995 90.0601C12.8129 89.9867 11.1395 88.6734 10.2795 86.1201C9.92952 82.9201 14.8295 80.6901 17.2195 79.8801C17.5529 79.7667 17.8595 79.8201 18.1395 80.0401L19.4095 81.0301Z" fill="#DE8FFB"/>
<path id="Vector_22" d="M90.0605 89.9997C89.7033 90.3343 89.2281 90.5137 88.7389 90.4987C88.2497 90.4837 87.7865 90.2755 87.4505 89.9197L85.9005 88.2696C85.3289 87.6612 84.826 86.9994 84.4206 86.3221C84.0152 85.6449 83.7152 84.9654 83.5378 84.3227C83.3604 83.6799 83.309 83.0865 83.3867 82.5764C83.4644 82.0662 83.6695 81.6494 83.9904 81.3497L84.8304 80.5597C85.4759 79.9532 86.5527 79.859 87.8241 80.2978C89.0956 80.7366 90.4575 81.6725 91.6104 82.8996L93.1605 84.5496C93.3277 84.7267 93.4583 84.9351 93.5448 85.1627C93.6313 85.3904 93.672 85.6329 93.6645 85.8763C93.6571 86.1197 93.6017 86.3592 93.5014 86.5812C93.4012 86.8031 93.2581 87.0031 93.0804 87.1697L90.0605 89.9997Z" fill="#9A26CD"/>
<path id="Vector_23" d="M19.9493 80.1904L24.4593 83.3904C27.0926 85.1238 30.2393 85.6971 33.8993 85.1104L43.9293 85.9304C44.4093 86.6171 44.5626 86.7471 44.3893 86.3204C44.3893 87.7271 44.5826 88.5238 44.9693 88.7104C37.7693 91.2204 29.7193 90.3204 22.1993 89.9604C22.1326 89.9604 22.086 89.9938 22.0593 90.0604C22.0326 90.1471 22.006 90.2338 21.9793 90.3204C21.946 90.4204 21.9793 90.4804 22.0793 90.5004C27.6593 91.5204 33.2793 92.1738 38.9393 92.4604C41.5693 92.5904 43.3293 93.8204 45.7393 94.6904C45.3393 94.5371 45.2793 94.9438 45.5593 95.9104C34.9326 95.4904 24.6093 94.1438 14.5893 91.8704C11.736 90.8704 9.96596 89.1871 9.2793 86.8204C9.58596 86.7671 9.9193 86.5338 10.2793 86.1204C11.1393 88.6738 12.8126 89.9871 15.2993 90.0604C15.646 90.0738 15.956 89.9771 16.2293 89.7704C18.2793 88.2104 22.7693 83.5204 19.4093 81.0304C19.496 80.6438 19.676 80.3638 19.9493 80.1904Z" fill="#9A26CD"/>
<path id="Vector_24" d="M33.9009 85.1099C30.2409 85.6966 27.0943 85.1233 24.4609 83.3899C26.3609 82.4699 32.8909 82.3499 33.9009 85.1099Z" fill="#EBACFD"/>
<path id="Vector_25" d="M79.2397 83.2505C68.1064 87.2438 56.4897 88.2671 44.3897 86.3205C44.563 86.7471 44.4097 86.6171 43.9297 85.9304C44.563 85.4704 45.253 85.2338 45.9997 85.2205C50.4997 85.1271 54.8697 84.9505 59.1097 84.6905C65.7364 83.6571 72.4464 83.1771 79.2397 83.2505Z" fill="#EBACFD"/>
<path id="Vector_26" d="M45.7393 94.6905C43.3293 93.8205 41.5693 92.5905 38.9393 92.4605C33.2793 92.1738 27.6593 91.5205 22.0793 90.5005C21.9793 90.4805 21.946 90.4205 21.9793 90.3205C22.006 90.2338 22.0326 90.1471 22.0593 90.0605C22.086 89.9938 22.1326 89.9605 22.1993 89.9605C29.7193 90.3205 37.7693 91.2205 44.9693 88.7105C49.5293 88.2905 58.7693 87.3905 62.5193 90.2405C62.6521 90.342 62.8079 90.4097 62.9734 90.4375C63.1389 90.4654 63.3091 90.4527 63.4693 90.4005C69.0993 88.5505 74.7193 90.9105 80.7293 90.3605C80.916 90.3471 81.066 90.4171 81.1793 90.5705C81.3393 90.7838 81.276 90.9071 80.9893 90.9405C78.0093 91.3405 75.016 91.6105 72.0093 91.7505C71.6798 91.7635 71.3652 91.8908 71.1193 92.1105C69.1793 93.8205 67.1893 93.9005 64.8493 92.9705C61.5693 91.6705 60.2993 94.4605 57.1593 94.6205C53.366 94.8071 49.5593 94.8305 45.7393 94.6905Z" fill="#DE8FFB"/>
</g>
</svg>
