<svg width="108" height="104" viewBox="0 0 108 104" fill="none" xmlns="http://www.w3.org/2000/svg">
<g id="Group 10">
<path id="Vector" d="M92.9994 31.99C92.9794 32.1367 93.0427 32.31 93.1894 32.51C93.296 32.65 93.2927 32.79 93.1794 32.93C93.0394 33.1034 92.956 33.3167 92.9294 33.57C81.3694 31.48 74.8894 32.01 68.3294 20.71C65.4694 15.78 59.8994 1.96004 53.1794 2.87004C48.6794 3.47004 44.1694 11.75 42.3694 15.46C38.9994 22.21 35.5794 29.46 29.4994 30.45C27.826 30.7234 26.5794 31.0467 25.7594 31.42L24.7294 31.64C24.296 31.7267 24.3093 31.1434 24.7693 29.89C27.7793 29.3 32.3894 28.93 34.1294 25.82C38.2294 18.51 42.5294 10.49 47.8094 4.00005C51.1094 -0.0399549 56.9094 -0.299954 60.1894 3.79005C63.3227 7.69671 67.9993 15.2634 74.2193 26.49C74.9793 27.85 77.9594 28.9 79.8094 29.24C84.236 30.0467 88.6327 30.9634 92.9994 31.99Z" fill="#FEFCBA"/>
<path id="Vector_2" d="M92.931 33.57C99.191 34.88 108.881 36.79 104.221 44.9C100.321 51.68 95.031 57.27 89.381 62.65C86.181 65.69 85.091 69.23 85.731 73.52C86.601 79.45 87.001 85.53 87.601 91.5C87.9109 94.65 88.161 101.08 82.811 99.65C82.6599 99.6102 82.5013 99.6115 82.3517 99.6538C82.2021 99.696 82.0672 99.7776 81.961 99.89C81.2943 100.597 80.5443 100.567 79.711 99.8C83.4443 99.7467 85.1943 97.65 84.961 93.51C84.441 84.25 83.9876 77.9934 83.601 74.74C83.101 70.57 83.441 65.92 86.561 63.38C90.281 60.35 93.441 56.01 96.561 52.44C96.6249 52.3631 96.6619 52.2674 96.6666 52.1674C96.6712 52.0675 96.6431 51.9688 96.5865 51.8863C96.53 51.8038 96.4481 51.7419 96.3533 51.7101C96.2584 51.6783 96.1558 51.6783 96.061 51.71C90.4076 53.7967 85.161 56.56 80.321 60C76.241 62.9 75.231 68.71 75.251 73.36C75.2508 73.5008 75.2192 73.6394 75.1586 73.7658C75.098 73.8921 75.01 74.0029 74.901 74.09L63.691 82.94C63.351 83.2134 62.9943 83.24 62.621 83.02C57.641 80.08 52.221 76.72 46.551 80.05C41.6376 82.9434 36.801 85.9367 32.041 89.03C29.9676 90.3834 27.1743 91.04 23.661 91C23.3543 91 23.171 91.15 23.111 91.45C22.321 95.53 22.901 100.66 28.521 99.83L23.411 100.68C23.091 100.733 22.791 100.683 22.511 100.53C20.611 99.51 19.651 98.17 19.631 96.51C19.5843 91.17 20.2043 84.08 21.491 75.24C22.451 68.65 20.221 64.41 15.451 59.42C11.871 55.68 -5.39904 40.33 5.52096 35.97C8.9343 34.6034 15.3377 33.16 24.731 31.64L25.761 31.42C26.271 34.94 24.511 35.83 21.311 35.52C19.0243 35.2934 16.7576 35.44 14.511 35.96C11.191 36.4934 8.4243 37.6967 6.21096 39.57C5.6443 40.0767 5.32096 40.5234 5.24096 40.91C5.16096 41.2634 5.29763 41.4967 5.65097 41.61L7.90097 42.35C8.0743 45.3967 9.21097 47.6767 11.311 49.19C16.2643 52.7567 21.091 56.5567 25.791 60.59C26.6776 62.2234 27.141 64.1734 27.181 66.44C27.1837 66.5759 27.2231 66.7087 27.2952 66.8248C27.3673 66.9409 27.4694 67.0359 27.591 67.1L36.541 71.82C36.841 71.98 37.161 72.0467 37.501 72.02C40.761 71.75 43.731 73.03 46.441 73.04C56.591 73.1 69.171 67.02 77.401 61.39C78.611 60.56 79.891 60.45 80.101 58.57C80.1343 58.23 80.2876 57.9567 80.561 57.75C82.8143 56.01 84.8143 54.0367 86.561 51.83C88.281 49.67 88.401 46.7 89.651 44.08C89.8006 43.7678 89.8494 43.4149 89.791 43.07C89.591 41.83 89.811 40.6867 90.451 39.64C90.611 39.38 90.5376 39.25 90.231 39.25H89.521C89.2743 39.25 89.1976 39.1367 89.291 38.91L89.501 38.43C89.821 38.5967 89.9776 38.5367 89.9709 38.25C91.0109 38.0767 91.6743 37.6734 91.961 37.04C92.141 36.6534 92.0243 36.4034 91.611 36.29L70.381 30.11C68.9476 28.53 67.4977 25.8934 66.031 22.2C64.7777 19.02 62.211 14.7734 58.331 9.46004C58.1777 9.2467 58.0843 9.01337 58.051 8.76004L57.9709 8.18004C57.9176 7.80004 57.7043 7.55337 57.331 7.44004L53.341 6.27004C52.5077 6.1367 51.9776 6.21337 51.751 6.50004C49.1643 9.74004 46.961 13.18 45.141 16.82C44.6543 16.9067 44.2377 16.9534 43.891 16.96C42.971 16.99 42.531 16.26 42.371 15.46C44.171 11.75 48.681 3.47004 53.181 2.87004C59.901 1.96004 65.471 15.78 68.331 20.71C74.891 32.01 81.371 31.48 92.931 33.57ZM101.982 39.4126C102.062 38.9824 101.71 38.4904 101.005 38.045C100.3 37.5996 99.2987 37.2373 98.2217 37.0376C97.6884 36.9388 97.1526 36.8829 96.6448 36.8731C96.137 36.8633 95.6672 36.8999 95.2621 36.9807C94.8571 37.0614 94.5248 37.1848 94.2843 37.3439C94.0438 37.5029 93.8996 37.6944 93.8602 37.9074C93.7804 38.3377 94.1318 38.8297 94.8369 39.2751C95.5421 39.7205 96.5433 40.0828 97.6203 40.2824C98.1536 40.3813 98.6894 40.4372 99.1972 40.447C99.705 40.4567 100.175 40.4202 100.58 40.3394C100.985 40.2587 101.317 40.1352 101.558 39.9762C101.798 39.8172 101.942 39.6257 101.982 39.4126ZM23.0148 88.6679C23.2238 88.6888 23.4528 88.4902 23.6884 88.0834C23.9241 87.6766 24.162 87.0697 24.3884 86.2972C24.6148 85.5247 24.8254 84.6018 25.0081 83.5812C25.1907 82.5606 25.3419 81.4623 25.4531 80.3489C25.5642 79.2356 25.633 78.1291 25.6557 77.0925C25.6784 76.0559 25.6544 75.1096 25.5851 74.3076C25.5158 73.5056 25.4027 72.8636 25.252 72.4183C25.1014 71.9729 24.9163 71.733 24.7072 71.7121C24.4981 71.6913 24.2692 71.8899 24.0335 72.2967C23.7978 72.7034 23.56 73.3104 23.3336 74.0829C23.1071 74.8554 22.8966 75.7783 22.7139 76.7989C22.5312 77.8195 22.38 78.9178 22.2689 80.0311C22.1578 81.1445 22.0889 82.251 22.0662 83.2876C22.0436 84.3242 22.0676 85.2705 22.1368 86.0725C22.2061 86.8745 22.3193 87.5165 22.4699 87.9618C22.6205 88.4071 22.8057 88.6471 23.0148 88.6679Z" fill="#F3A51C"/>
<path id="Vector_3" d="M53.3406 6.26955L53.5606 9.00954C53.0073 9.55621 52.704 10.2129 52.6506 10.9795C51.6973 13.2129 51.0673 15.5529 50.7606 17.9995C50.6206 19.1495 49.1306 21.1295 48.7106 22.7595C48.084 25.2195 47.0806 27.3695 45.7006 29.2095C44.8873 30.2895 44.3573 31.4029 44.1106 32.5495C44.0464 32.8704 43.86 33.1537 43.5906 33.3395C39.9706 35.8462 35.954 36.9062 31.5406 36.5195C30.4006 36.4262 29.7073 36.0995 29.4606 35.5395C29.1539 34.8662 29.3173 33.9296 29.9506 32.7295C35.2206 31.0996 38.0306 28.8095 40.9606 23.7695C42.3073 21.4562 43.7006 19.1395 45.1406 16.8195C46.9606 13.1795 49.164 9.73955 51.7506 6.49955C51.9773 6.21288 52.5073 6.13621 53.3406 6.26955Z" fill="#FEFEF3"/>
<path id="Vector_4" d="M53.3404 6.26953L57.3304 7.43953C57.7037 7.55286 57.917 7.79953 57.9704 8.17953L58.0504 8.75953C58.0837 9.01286 58.1771 9.2462 58.3304 9.45953C62.2104 14.7729 64.7771 19.0195 66.0304 22.1995C67.4971 25.8929 68.9471 28.5295 70.3804 30.1095C69.9071 30.1829 69.5504 30.3695 69.3104 30.6695C69.2104 30.7916 69.1574 30.9455 69.161 31.1032C69.1647 31.261 69.2248 31.4123 69.3304 31.5295C75.1604 38.0795 81.7104 38.3295 89.9704 38.2495C89.977 38.5362 89.8204 38.5962 89.5004 38.4295L84.2004 39.1095C84.0937 39.1229 84.0837 39.1629 84.1704 39.2295C84.2637 39.2962 84.3737 39.3162 84.5004 39.2895C84.7337 39.2429 84.9671 39.2295 85.2004 39.2495C85.2116 39.2531 85.2215 39.26 85.2289 39.2691C85.2362 39.2783 85.2407 39.2895 85.2418 39.3012C85.2429 39.3129 85.2405 39.3247 85.2349 39.3351C85.2293 39.3455 85.2208 39.354 85.2104 39.3595C83.4571 39.7995 82.3004 40.9362 81.7404 42.7695C81.2071 44.5229 80.3204 46.5495 79.0804 48.8495C77.0504 52.6395 73.0504 55.4995 70.1004 58.8195C69.8804 59.0662 69.6171 59.2529 69.3104 59.3795C67.0304 60.3695 64.7904 62.3595 61.7804 62.7995C56.2504 63.5895 52.0704 66.7795 46.2604 66.3195C41.4004 65.9462 36.5704 65.3195 31.7704 64.4395C31.632 64.4132 31.4994 64.3588 31.3804 64.2795L25.7904 60.5895C21.0904 56.5562 16.2637 52.7562 11.3104 49.1895C9.21039 47.6762 8.07372 45.3962 7.90039 42.3495C14.9104 40.1195 14.6304 47.6895 18.7404 50.7595C20.9071 52.3862 23.1037 53.9762 25.3304 55.5295C26.5571 56.3895 27.9204 56.9262 29.4204 57.1395C34.4304 57.8495 40.0304 59.2795 44.9904 58.1195C54.0504 56.0095 60.9304 51.5895 64.8804 42.6595C65.4871 41.2929 66.687 39.8329 68.4804 38.2795C68.747 38.0462 68.8471 37.7529 68.7804 37.3995C68.4538 35.7729 67.6004 34.2362 66.2204 32.7895C63.0804 29.5162 61.167 25.4329 60.4804 20.5395C60.4422 20.2259 60.2806 19.9385 60.0304 19.7395C58.4604 18.4995 57.5504 17.1895 55.6604 15.1095C54.1404 13.4395 54.6404 9.53953 53.5604 9.00953L53.3404 6.26953Z" fill="#F3DB52"/>
<path id="Vector_5" d="M53.5609 9.00977C54.6409 9.53977 54.1409 13.4398 55.6609 15.1098C57.5509 17.1898 58.4609 18.4998 60.0309 19.7398C60.2812 19.9387 60.4428 20.2261 60.4809 20.5398C61.1676 25.4331 63.0809 29.5164 66.2209 32.7898C67.6009 34.2364 68.4543 35.7731 68.7809 37.3998C68.8476 37.7531 68.7476 38.0464 68.4809 38.2798C66.6876 39.8331 65.4876 41.2931 64.8809 42.6598C60.9309 51.5898 54.0509 56.0098 44.9909 58.1198C40.0309 59.2798 34.4309 57.8498 29.4209 57.1398C27.9209 56.9264 26.5576 56.3898 25.3309 55.5298C23.1042 53.9764 20.9076 52.3864 18.7409 50.7598C14.6309 47.6898 14.9109 40.1198 7.90091 42.3498L5.65091 41.6098C5.29757 41.4964 5.1609 41.2631 5.2409 40.9098C5.3209 40.5231 5.64424 40.0764 6.2109 39.5698C6.13757 40.2564 6.23425 40.7664 6.50091 41.0998C6.71425 41.3731 7.13091 41.4798 7.75091 41.4198C12.3376 41.0131 16.6509 39.8798 20.6909 38.0198C20.809 37.9632 20.908 37.8732 20.9755 37.761C21.0431 37.6487 21.0762 37.5192 21.0709 37.3883C21.0656 37.2574 21.022 37.131 20.9456 37.0246C20.8692 36.9182 20.7633 36.8366 20.6409 36.7898C18.7743 36.0831 16.7309 35.8064 14.5109 35.9598C16.7576 35.4398 19.0242 35.2931 21.3109 35.5198C24.5109 35.8298 26.2709 34.9398 25.7609 31.4198C26.5809 31.0464 27.8276 30.7231 29.5009 30.4498C35.5809 29.4598 39.0009 22.2098 42.3709 15.4598C42.5309 16.2598 42.9709 16.9898 43.8909 16.9598C44.2376 16.9531 44.6543 16.9064 45.1409 16.8198C43.7009 19.1398 42.3076 21.4564 40.9609 23.7698C38.0309 28.8098 35.2209 31.0998 29.9509 32.7298C25.4709 34.3298 25.1409 39.6098 28.2909 42.7298C31.4009 45.8098 34.4909 45.8098 38.3409 46.3798C43.7509 47.1798 46.1009 45.3298 50.2609 42.2898C58.7309 36.0898 57.6609 29.3898 55.9709 20.1598C55.9175 19.8464 55.8309 19.5431 55.7109 19.2498C55.4243 18.5298 54.9809 17.9064 54.3809 17.3798C54.1409 17.1598 53.9842 16.8898 53.9109 16.5698L52.6509 10.9798C52.7043 10.2131 53.0076 9.55643 53.5609 9.00977Z" fill="#FFF086"/>
<path id="Vector_6" d="M52.6491 10.9805L53.909 16.5705C53.9824 16.8905 54.1391 17.1605 54.3791 17.3805C54.9791 17.9071 55.4224 18.5305 55.7091 19.2505C55.8291 19.5438 55.9157 19.8471 55.969 20.1605C57.659 29.3905 58.7291 36.0905 50.2591 42.2905C46.0991 45.3305 43.7491 47.1805 38.3391 46.3805C34.4891 45.8105 31.3991 45.8105 28.2891 42.7305C25.1391 39.6105 25.4691 34.3305 29.9491 32.7305C29.3157 33.9305 29.1524 34.8671 29.4591 35.5405C29.7057 36.1005 30.3991 36.4271 31.5391 36.5205C35.9524 36.9071 39.9691 35.8471 43.5891 33.3405C43.8584 33.1546 44.0449 32.8713 44.1091 32.5505C44.3557 31.4038 44.8857 30.2905 45.6991 29.2105C47.0791 27.3705 48.0824 25.2205 48.7091 22.7605C49.1291 21.1305 50.6191 19.1505 50.7591 18.0005C51.0657 15.5538 51.6958 13.2138 52.6491 10.9805Z" fill="#FEFCBA"/>
<path id="Vector_7" d="M24.77 29.8896C24.31 31.143 24.2967 31.7263 24.73 31.6396C15.3367 33.1596 8.93336 34.603 5.52002 35.9697C-5.39998 40.3297 11.87 55.6796 15.45 59.4196C20.22 64.4096 22.45 68.6496 21.49 75.2396C20.2034 84.0796 19.5834 91.1696 19.63 96.5096C19.65 98.1696 20.61 99.5097 22.51 100.53C22.79 100.683 23.09 100.733 23.41 100.68L28.52 99.8297C34.0534 97.183 39.6401 94.633 45.2801 92.1796C51.8201 89.3396 57.69 89.2396 63.68 92.5596C69.56 95.8196 74.9034 98.233 79.7101 99.7997C80.5434 100.566 81.2934 100.596 81.9601 99.8896C82.0662 99.7772 82.2012 99.6956 82.3507 99.6534C82.5003 99.6111 82.659 99.6099 82.81 99.6496C88.16 101.08 87.91 94.6497 87.6 91.4996C87 85.5296 86.6 79.4496 85.73 73.5196C85.09 69.2296 86.18 65.6897 89.38 62.6497C95.03 57.2696 100.32 51.6797 104.22 44.8997C108.88 36.7897 99.19 34.8796 92.93 33.5696C92.9567 33.3163 93.04 33.103 93.18 32.9296C93.2934 32.7896 93.2967 32.6497 93.19 32.5097C93.0434 32.3097 92.98 32.1363 93 31.9896C96.22 32.6963 99.4134 33.493 102.58 34.3796C107.24 35.6896 109.14 41.1796 107.05 45.2796C106.763 45.833 105.547 47.483 103.4 50.2297C99.0001 55.8497 94.39 61.2963 89.57 66.5696C88.3634 67.8963 87.9301 69.9597 88.2701 72.7597C89.2301 80.6996 89.9601 88.6663 90.4601 96.6597C90.5601 98.253 90.2467 99.5497 89.5201 100.55C86.3901 104.86 82.35 104.16 77.69 102.22C70.2834 99.1197 62.87 96.0563 55.45 93.0296C54.6367 92.6963 53.3333 92.8896 51.54 93.6096C44.3333 96.4963 37.1367 99.403 29.95 102.33C27.0367 103.516 24.77 103.953 23.15 103.64C19.5 102.94 17.29 100.07 17.54 96.1897C18.0267 88.263 18.76 80.3697 19.74 72.5097C20.16 69.1497 19.08 67.3496 16.75 64.7496C9.55003 56.703 4.57669 50.6796 1.83002 46.6796C-1.58998 41.6996 0.210047 35.9696 5.95005 34.2896C12.0967 32.4963 18.37 31.0296 24.77 29.8896Z" fill="#F3DB52"/>
<path id="Vector_8" d="M70.3797 30.1104L91.6097 36.2904C92.023 36.4037 92.1397 36.6537 91.9597 37.0404C91.673 37.6737 91.0097 38.077 89.9697 38.2504C81.7097 38.3304 75.1597 38.0803 69.3297 31.5303C69.2241 31.4131 69.164 31.2618 69.1603 31.1041C69.1567 30.9463 69.2096 30.7924 69.3097 30.6703C69.5497 30.3703 69.9064 30.1837 70.3797 30.1104Z" fill="#FCFDDD"/>
<path id="Vector_9" d="M14.5093 35.96C16.7293 35.8066 18.7726 36.0833 20.6393 36.79C20.7616 36.8368 20.8675 36.9184 20.944 37.0248C21.0204 37.1312 21.064 37.2576 21.0693 37.3885C21.0746 37.5194 21.0414 37.6489 20.9739 37.7612C20.9064 37.8734 20.8074 37.9634 20.6893 38.02C16.6493 39.88 12.3359 41.0133 7.74928 41.42C7.12928 41.48 6.71261 41.3733 6.49928 41.1C6.23261 40.7666 6.13594 40.2566 6.20927 39.57C8.4226 37.6966 11.1893 36.4933 14.5093 35.96Z" fill="#FCFDDD"/>
<path id="Vector_10" d="M97.6196 40.2825C99.8624 40.6982 101.815 40.3088 101.981 39.4128C102.147 38.5168 100.464 37.4535 98.221 37.0378C95.9783 36.6221 94.0255 37.0115 93.8595 37.9075C93.6934 38.8035 95.3769 39.8669 97.6196 40.2825Z" fill="#FCFDDD"/>
<path id="Vector_11" d="M89.4991 38.4297L89.289 38.9097C89.1957 39.1364 89.2724 39.2497 89.5191 39.2497H90.229C90.5357 39.2497 90.6091 39.3797 90.4491 39.6397C89.8091 40.6864 89.589 41.8297 89.789 43.0697C89.8475 43.4146 89.7987 43.7674 89.6491 44.0797C88.3991 46.6997 88.2791 49.6697 86.5591 51.8297C84.8124 54.0364 82.8124 56.0097 80.5591 57.7497C80.2857 57.9564 80.1324 58.2297 80.099 58.5697C79.889 60.4497 78.6091 60.5597 77.3991 61.3897C69.1691 67.0197 56.5891 73.0997 46.4391 73.0397C43.7291 73.0297 40.7591 71.7497 37.4991 72.0197C37.1591 72.0464 36.839 71.9797 36.539 71.8197L27.5891 67.0997C27.4675 67.0355 27.3654 66.9405 27.2933 66.8244C27.2212 66.7084 27.1817 66.5755 27.179 66.4397C27.139 64.173 26.6757 62.223 25.7891 60.5897L31.3791 64.2797C31.498 64.359 31.6306 64.4134 31.769 64.4397C36.569 65.3197 41.3991 65.9464 46.2591 66.3197C52.0691 66.7797 56.2491 63.5897 61.7791 62.7997C64.7891 62.3597 67.0291 60.3697 69.3091 59.3797C69.6157 59.253 69.879 59.0664 70.099 58.8197C73.049 55.4997 77.0491 52.6397 79.0791 48.8497C80.3191 46.5497 81.2057 44.523 81.739 42.7697C82.299 40.9364 83.4557 39.7997 85.2091 39.3597C85.2195 39.3541 85.228 39.3456 85.2336 39.3353C85.2391 39.3249 85.2415 39.3131 85.2404 39.3014C85.2394 39.2896 85.2349 39.2785 85.2275 39.2693C85.2201 39.2601 85.2103 39.2533 85.1991 39.2497C84.9657 39.2297 84.7324 39.243 84.4991 39.2897C84.3724 39.3164 84.2624 39.2964 84.169 39.2297C84.0824 39.163 84.0924 39.123 84.1991 39.1097L89.4991 38.4297Z" fill="#F9C041"/>
<path id="Vector_12" d="M79.7096 99.8003C74.903 98.2337 69.5596 95.8203 63.6796 92.5603C57.6896 89.2403 51.8196 89.3403 45.2796 92.1803C39.6396 94.6337 34.0529 97.1837 28.5196 99.8303C22.8996 100.66 22.3196 95.5303 23.1096 91.4503C23.1696 91.1503 23.353 91.0003 23.6596 91.0003C27.173 91.0403 29.9663 90.3837 32.0396 89.0303C36.7996 85.937 41.6363 82.9437 46.5496 80.0503C52.2196 76.7203 57.6396 80.0803 62.6196 83.0203C62.9929 83.2403 63.3496 83.2137 63.6896 82.9403L74.8996 74.0903C75.0087 74.0032 75.0967 73.8924 75.1573 73.7661C75.2178 73.6397 75.2494 73.501 75.2496 73.3603C75.2296 68.7103 76.2396 62.9003 80.3196 60.0003C85.1596 56.5603 90.4063 53.797 96.0596 51.7103C96.1545 51.6786 96.2571 51.6786 96.3519 51.7104C96.4468 51.7422 96.5287 51.8041 96.5852 51.8866C96.6417 51.9691 96.6698 52.0678 96.6652 52.1677C96.6606 52.2677 96.6235 52.3634 96.5596 52.4403C93.4396 56.0103 90.2796 60.3503 86.5596 63.3803C83.4396 65.9203 83.0996 70.5703 83.5996 74.7403C83.9863 77.9937 84.4396 84.2503 84.9596 93.5103C85.193 97.6503 83.443 99.747 79.7096 99.8003ZM78.9196 84.5803C79.5063 88.067 79.4363 90.987 78.7096 93.3403C74.123 87.887 68.5563 85.187 62.0096 85.2403C57.5896 84.0103 52.7496 83.2203 48.3596 85.2803C44.6196 87.0337 40.9063 88.8503 37.2196 90.7303C36.9663 90.857 36.8096 91.0137 36.7496 91.2003C36.6696 91.4137 36.6696 91.6537 36.7496 91.9203C36.8629 92.2803 37.0829 92.3703 37.4096 92.1903C42.3563 89.5237 47.6263 87.927 53.2196 87.4003C56.1096 87.1303 58.4696 87.8703 61.2496 88.6403C65.0563 91.727 69.4696 93.9237 74.4896 95.2303C76.6296 96.8003 81.7896 98.4003 82.7996 94.5203C83.6196 91.3737 83.4796 88.0837 82.3796 84.6503C82.2996 80.3703 81.8996 76.6903 81.0096 72.4403C80.3163 69.1603 81.1596 66.1703 83.5396 63.4703C83.6058 63.3906 83.6415 63.289 83.6399 63.1845C83.6383 63.08 83.5995 62.9797 83.5309 62.9025C83.4622 62.8253 83.3684 62.7764 83.2669 62.765C83.1655 62.7535 83.0633 62.7803 82.9796 62.8403C78.9496 65.6903 78.8796 69.2803 78.2396 74.6403C77.8329 78.0737 78.0596 81.387 78.9196 84.5803Z" fill="#F3901E"/>
<path id="Vector_13" d="M82.3808 84.6496C81.9341 85.9563 80.7808 85.933 78.9208 84.5796C78.0608 81.3863 77.8341 78.073 78.2408 74.6396C78.8808 69.2796 78.9508 65.6896 82.9808 62.8396C83.0645 62.7796 83.1667 62.7529 83.2681 62.7643C83.3696 62.7758 83.4634 62.8247 83.532 62.9019C83.6007 62.9791 83.6394 63.0793 83.641 63.1838C83.6426 63.2883 83.607 63.3899 83.5408 63.4696C81.1608 66.1696 80.3175 69.1596 81.0108 72.4396C81.9008 76.6896 82.3008 80.3696 82.3808 84.6496Z" fill="#F3DB52"/>
<path id="Vector_14" d="M22.2684 80.0311C21.8011 84.7133 22.135 88.5802 23.0143 88.6679C23.8936 88.7557 24.9853 85.0312 25.4526 80.349C25.92 75.6668 25.586 71.7999 24.7067 71.7122C23.8275 71.6244 22.7358 75.3489 22.2684 80.0311Z" fill="#F3DB52"/>
<path id="Vector_15" d="M62.0095 85.2401C60.7095 85.6201 60.4561 86.7534 61.2495 88.6401C58.4695 87.8701 56.1094 87.1301 53.2194 87.4001C47.6261 87.9268 42.3561 89.5234 37.4094 92.1901C37.0828 92.3701 36.8628 92.2801 36.7495 91.9201C36.6695 91.6534 36.6695 91.4134 36.7495 91.2001C36.8095 91.0134 36.9661 90.8568 37.2194 90.7301C40.9061 88.8501 44.6194 87.0334 48.3594 85.2801C52.7494 83.2201 57.5895 84.0101 62.0095 85.2401Z" fill="#F9C041"/>
<path id="Vector_16" d="M78.9202 84.5801C80.7802 85.9334 81.9336 85.9567 82.3802 84.6501C83.4802 88.0834 83.6202 91.3734 82.8002 94.5201C81.7902 98.4001 76.6302 96.8001 74.4902 95.2301C75.9902 95.2167 77.3969 94.5867 78.7103 93.3401C79.4369 90.9867 79.5069 88.0667 78.9202 84.5801Z" fill="#F3A51C"/>
<path id="Vector_17" d="M62.0098 85.24C68.5565 85.1867 74.1232 87.8867 78.7098 93.34C77.3965 94.5867 75.9898 95.2167 74.4898 95.23C69.4698 93.9234 65.0565 91.7267 61.2498 88.64C60.4565 86.7534 60.7098 85.62 62.0098 85.24Z" fill="#F3DB52"/>
</g>
</svg>
